<svg xmlns="http://www.w3.org/2000/svg"  viewBox="0 0 32 32" width="32px" height="32px"><path d="M 7 3.6191406 C 6.3227053 3.6191406 5.6552896 3.7839538 5.0039062 3.9980469 A 1.0001 1.0001 0 0 0 4.6425781 4.0664062 A 1.0001 1.0001 0 0 0 4.5507812 4.1074219 A 1.0001 1.0001 0 0 0 4.5449219 4.109375 A 1.0001 1.0001 0 0 0 4.4648438 4.15625 A 1.0001 1.0001 0 0 0 3.9921875 5.0214844 C 3.3218902 6.2846879 3.323648 7.7153895 3.9941406 8.9785156 A 1.0001 1.0001 0 0 0 4.484375 9.8574219 A 1.0001 1.0001 0 0 0 4.4902344 9.8613281 A 1.0001 1.0001 0 0 0 4.5722656 9.9042969 A 1.0001 1.0001 0 0 0 4.6289062 9.9277344 A 1.0001 1.0001 0 0 0 4.6367188 9.9316406 A 1.0001 1.0001 0 0 0 4.6386719 9.9316406 A 1.0001 1.0001 0 0 0 5.0058594 10.001953 C 6.3081087 10.429533 7.6939421 10.429937 8.9960938 10.001953 A 1.0001 1.0001 0 0 0 9.3574219 9.9335938 A 1.0001 1.0001 0 0 0 9.3632812 9.9316406 A 1.0001 1.0001 0 0 0 9.4492188 9.8925781 A 1.0001 1.0001 0 0 0 9.4550781 9.890625 A 1.0001 1.0001 0 0 0 9.5351562 9.84375 A 1.0001 1.0001 0 0 0 10.007812 8.9785156 C 10.678111 7.7153121 10.676402 6.2846105 10.005859 5.0214844 A 1.0001 1.0001 0 0 0 9.515625 4.1425781 A 1.0001 1.0001 0 0 0 9.5097656 4.1386719 A 1.0001 1.0001 0 0 0 9.4277344 4.0957031 A 1.0001 1.0001 0 0 0 9.3710938 4.0722656 A 1.0001 1.0001 0 0 0 9.3632812 4.0683594 C 9.3632812 4.0683594 9.3613281 4.0683594 9.3613281 4.0683594 A 1.0001 1.0001 0 0 0 8.9941406 3.9980469 C 8.3433236 3.784358 7.6766551 3.6191406 7 3.6191406 z M 7 5.6191406 C 7.4374224 5.6191406 7.8660603 5.7353683 8.2890625 5.8652344 C 8.7029881 6.5814959 8.7029881 7.4185041 8.2890625 8.1347656 C 7.4430582 8.3944978 6.5569418 8.3944978 5.7109375 8.1347656 C 5.2970119 7.4185041 5.2970119 6.5814959 5.7109375 5.8652344 C 6.1339397 5.7353683 6.5625776 5.6191406 7 5.6191406 z M 14 6 A 1.0001 1.0001 0 1 0 14 8 L 27 8 A 1.0001 1.0001 0 1 0 27 6 L 14 6 z M 7 12.619141 C 6.3227053 12.619141 5.6552896 12.783954 5.0039062 12.998047 A 1.0001 1.0001 0 0 0 4.6425781 13.066406 A 1.0001 1.0001 0 0 0 4.5507812 13.107422 A 1.0001 1.0001 0 0 0 4.5449219 13.109375 A 1.0001 1.0001 0 0 0 4.4648438 13.15625 A 1.0001 1.0001 0 0 0 3.9921875 14.021484 C 3.3218902 15.284688 3.323648 16.715389 3.9941406 17.978516 A 1.0001 1.0001 0 0 0 4.484375 18.857422 A 1.0001 1.0001 0 0 0 4.4902344 18.861328 A 1.0001 1.0001 0 0 0 4.5722656 18.904297 A 1.0001 1.0001 0 0 0 4.6289062 18.927734 A 1.0001 1.0001 0 0 0 4.6367188 18.931641 A 1.0001 1.0001 0 0 0 4.6386719 18.931641 A 1.0001 1.0001 0 0 0 5.0058594 19.001953 C 6.3081087 19.429533 7.6939421 19.429937 8.9960938 19.001953 A 1.0001 1.0001 0 0 0 9.3574219 18.933594 A 1.0001 1.0001 0 0 0 9.3632812 18.931641 A 1.0001 1.0001 0 0 0 9.4492188 18.892578 A 1.0001 1.0001 0 0 0 9.4550781 18.890625 A 1.0001 1.0001 0 0 0 9.5351562 18.84375 A 1.0001 1.0001 0 0 0 10.007812 17.978516 C 10.678111 16.715312 10.676402 15.284611 10.005859 14.021484 A 1.0001 1.0001 0 0 0 9.515625 13.142578 A 1.0001 1.0001 0 0 0 9.5097656 13.138672 A 1.0001 1.0001 0 0 0 9.4277344 13.095703 A 1.0001 1.0001 0 0 0 9.3710938 13.072266 A 1.0001 1.0001 0 0 0 9.3632812 13.068359 C 9.3632812 13.068359 9.3613281 13.068359 9.3613281 13.068359 A 1.0001 1.0001 0 0 0 8.9941406 12.998047 C 8.3433236 12.784358 7.6766551 12.619141 7 12.619141 z M 7 14.619141 C 7.4374224 14.619141 7.8660603 14.735368 8.2890625 14.865234 C 8.7029881 15.581496 8.7029881 16.418504 8.2890625 17.134766 C 7.4430582 17.394498 6.5569418 17.394498 5.7109375 17.134766 C 5.2970119 16.418504 5.2970119 15.581496 5.7109375 14.865234 C 6.1339397 14.735368 6.5625776 14.619141 7 14.619141 z M 14 15 A 1.0001 1.0001 0 1 0 14 17 L 27 17 A 1.0001 1.0001 0 1 0 27 15 L 14 15 z M 7 21.619141 C 6.3227053 21.619141 5.6552896 21.783954 5.0039062 21.998047 A 1.0001 1.0001 0 0 0 4.6425781 22.066406 A 1.0001 1.0001 0 0 0 4.5507812 22.107422 A 1.0001 1.0001 0 0 0 4.5449219 22.109375 A 1.0001 1.0001 0 0 0 4.4648438 22.15625 A 1.0001 1.0001 0 0 0 3.9921875 23.021484 C 3.3218902 24.284688 3.323648 25.715389 3.9941406 26.978516 A 1.0001 1.0001 0 0 0 4.484375 27.857422 A 1.0001 1.0001 0 0 0 4.4902344 27.861328 A 1.0001 1.0001 0 0 0 4.5722656 27.904297 A 1.0001 1.0001 0 0 0 4.6289062 27.927734 A 1.0001 1.0001 0 0 0 4.6367188 27.931641 A 1.0001 1.0001 0 0 0 4.6386719 27.931641 A 1.0001 1.0001 0 0 0 5.0058594 28.001953 C 6.3081087 28.429533 7.6939421 28.429937 8.9960938 28.001953 A 1.0001 1.0001 0 0 0 9.3574219 27.933594 A 1.0001 1.0001 0 0 0 9.3632812 27.931641 A 1.0001 1.0001 0 0 0 9.4492188 27.892578 A 1.0001 1.0001 0 0 0 9.4550781 27.890625 A 1.0001 1.0001 0 0 0 9.5351562 27.84375 A 1.0001 1.0001 0 0 0 10.007812 26.978516 C 10.678111 25.715312 10.676402 24.284611 10.005859 23.021484 A 1.0001 1.0001 0 0 0 9.515625 22.142578 A 1.0001 1.0001 0 0 0 9.5097656 22.138672 A 1.0001 1.0001 0 0 0 9.4277344 22.095703 A 1.0001 1.0001 0 0 0 9.3710938 22.072266 A 1.0001 1.0001 0 0 0 9.3632812 22.068359 C 9.3632812 22.068359 9.3613281 22.068359 9.3613281 22.068359 A 1.0001 1.0001 0 0 0 8.9941406 21.998047 C 8.3433236 21.784358 7.6766551 21.619141 7 21.619141 z M 7 23.619141 C 7.4374224 23.619141 7.8660603 23.735368 8.2890625 23.865234 C 8.7029881 24.581496 8.7029881 25.418504 8.2890625 26.134766 C 7.4430582 26.394498 6.5569418 26.394498 5.7109375 26.134766 C 5.2970119 25.418504 5.2970119 24.581496 5.7109375 23.865234 C 6.1339397 23.735368 6.5625776 23.619141 7 23.619141 z M 14 24 A 1.0001 1.0001 0 1 0 14 26 L 27 26 A 1.0001 1.0001 0 1 0 27 24 L 14 24 z"/></svg>