<svg xmlns="http://www.w3.org/2000/svg"  viewBox="0 0 48 48" width="48px" height="48px"><path fill="#7debf5" d="M34,22H14c-1.104,0-2-0.896-2-2s0.896-2,2-2h20c1.104,0,2,0.896,2,2S35.104,22,34,22z"/><path fill="#3dd9eb" d="M43,44H5l1.624-7.287C7.416,31.696,11.741,28,16.821,28h14.357c5.08,0,9.405,3.696,10.197,8.713 L43,44z"/><path fill="#7debf5" d="M24,30L24,30c-5.135,0-9.46-3.837-10.072-8.936l-0.498-4.15C12.669,10.577,17.617,5,24,5h0 c6.383,0,11.331,5.577,10.57,11.915l-0.498,4.15C33.46,26.163,29.135,30,24,30z"/></svg>