<svg xmlns="http://www.w3.org/2000/svg"  viewBox="0 0 60 60" width="32px" height="32px"><path fill="#333" d="M51.29999,25.40094C53.00641,23.72968,54,21.44684,54,19c0-4.9624-4.03711-9-9-9	c-1.63965,0-3.25293,0.45068-4.66699,1.30371c-0.47266,0.28564-0.625,0.8999-0.33984,1.37305s0.90039,0.62402,1.37305,0.33984	C42.46875,12.35156,43.72461,12,45,12c3.85938,0,7,3.14014,7,7c0,2.37695-1.19043,4.56787-3.18848,5.86377	c-1.67773,1.10059-3.80469,1.41797-5.74707,0.86475c-0.52539-0.15137-1.08398,0.15527-1.23633,0.68652	c-0.15137,0.53125,0.15625,1.08447,0.6875,1.23633C43.32422,27.88281,44.16016,28,45,28c1.57239,0,3.09235-0.42896,4.44177-1.20355	C54.57532,28.65662,58,33.5033,58,39v5h-9.11859c-0.70825-6.6792-4.91034-12.52411-11.03961-15.29944	C39.79224,26.71466,41,23.99683,41,21c0-6.06543-4.93457-11-11-11s-11,4.93457-11,11c0,2.99774,1.20844,5.71637,3.15997,7.70245	c-2.06268,0.93719-3.97583,2.24829-5.59845,3.86151C13.45099,35.68341,11.55817,39.68713,11.10889,44H2v-5	c0-3.46289,1.35254-6.72803,3.80469-9.19043c1.34991-1.34131,2.99335-2.36456,4.76282-3.00775C11.91724,27.57343,13.43262,28,15,28	c0.83984,0,1.67578-0.11719,2.48438-0.34863c0.53125-0.15186,0.83887-0.70508,0.6875-1.23633	c-0.15234-0.53125-0.71094-0.8374-1.23633-0.68652c-1.94141,0.5542-4.06738,0.2373-5.75195-0.86719	C9.19043,23.56787,8,21.37695,8,19c0-3.85986,3.14063-7,7-7c1.27539,0,2.53125,0.35156,3.63379,1.0166	c0.47461,0.28418,1.08691,0.13184,1.37305-0.33984c0.28516-0.47314,0.13281-1.0874-0.33984-1.37305	C18.25293,10.45068,16.63965,10,15,10c-4.96289,0-9,4.0376-9,9c0,2.44489,0.992,4.72607,2.69342,6.39575	c-1.58588,0.73718-3.0506,1.755-4.3028,2.99878C1.55957,31.23828,0,35.00439,0,39v6c0,0.55225,0.44727,1,1,1h10v8	c0,0.55225,0.44727,1,1,1h36c0.55273,0,1-0.44775,1-1v-8h10c0.55273,0,1-0.44775,1-1v-6	C60,33.0874,56.56378,27.82745,51.29999,25.40094z M30,12c4.96289,0,9,4.0376,9,9s-4.03711,9-9,9s-9-4.0376-9-9S25.03711,12,30,12z M47,53H13v-7c0-4.53418,1.76758-8.8042,4.97461-12.021c1.68951-1.68042,3.73767-2.98395,5.93365-3.82721	C25.65375,31.3175,27.74811,32,30,32c2.25568,0,4.35358-0.68445,6.10077-1.8537C42.63727,32.65771,47,38.95935,47,46V53z"/></svg>