<svg xmlns="http://www.w3.org/2000/svg"  viewBox="0 0 48 48" width="48px" height="48px"><path fill="#607d8b" d="M2 39.906C2 39.906 4.8 34 12 34s10 5.906 10 5.906V43H2V39.906zM46 39.906c0 0-2.8-5.906-10-5.906s-10 5.906-10 5.906V43h20V39.906z"/><path fill="#ffb74d" d="M12 22A5 5 0 1 0 12 32 5 5 0 1 0 12 22zM36 22A5 5 0 1 0 36 32 5 5 0 1 0 36 22z"/><path fill="#43a047" d="M32,5H18c-1.657,0-3,1.343-3,3v9c0,1.647,1.353,2.987,3,3h4l3,4l3-4h4c1.657,0,3-1.343,3-3V8 C35,6.343,33.657,5,32,5z"/><path fill="#fff" d="M23.6 17.2L20.1 13.7 21.5 12.3 23.6 14.4 29.006 8.994 30.406 10.394z"/></svg>