<svg xmlns="http://www.w3.org/2000/svg"  viewBox="0 0 32 32" width="32px" height="32px"><path d="M 23.748047 4.2148438 C 23.006991 4.2304111 22.245457 4.4378034 21.525391 4.8828125 C 20.150039 5.7329728 18.876741 6.73198 17.730469 7.859375 C 15.124488 10.419864 13.727935 13.960134 13.810547 17.601562 C 13.820697 18.190241 14.309759 18.679303 14.898438 18.689453 C 18.538951 18.772073 22.079229 17.375332 24.640625 14.769531 C 25.76637 13.62387 26.766638 12.351637 27.617188 10.974609 C 28.804566 9.0549516 28.298601 6.8337569 26.982422 5.5175781 C 26.324332 4.8594887 25.440192 4.404296 24.480469 4.2617188 C 24.240538 4.2260744 23.995066 4.2096546 23.748047 4.2148438 z M 14.822266 5.5527344 C 12.128234 5.5527344 9.4350931 5.8714123 6.7480469 6.5097656 C 5.7111097 6.7556306 4.9012856 7.5656258 4.65625 8.6035156 C 3.3806692 13.978223 3.3806692 19.375292 4.65625 24.75 C 4.901625 25.787764 5.7126468 26.597281 6.75 26.84375 C 12.124067 28.119179 17.522412 28.118874 22.896484 26.84375 C 23.934249 26.598375 24.743765 25.789306 24.990234 24.751953 A 1.0001 1.0001 0 0 0 24.990234 24.75 C 25.491828 22.636728 25.797159 20.522332 25.904297 18.404297 A 1.0001 1.0001 0 1 0 23.908203 18.302734 C 23.807341 20.296699 23.519328 22.290335 23.044922 24.289062 C 22.975392 24.581709 22.727736 24.829812 22.4375 24.898438 A 1.0001 1.0001 0 0 0 22.435547 24.898438 C 17.352254 26.104857 12.296183 26.104857 7.2128906 24.898438 C 6.9202438 24.828907 6.6721406 24.579299 6.6035156 24.289062 C 5.3970964 19.20577 5.3970964 14.147746 6.6035156 9.0644531 C 6.6723446 8.7729184 6.9207019 8.5256562 7.2109375 8.4570312 A 1.0001 1.0001 0 0 0 7.2109375 8.4550781 C 9.7519383 7.8514754 12.286297 7.5527344 14.822266 7.5527344 A 1.0001 1.0001 0 1 0 14.822266 5.5527344 z M 23.833984 6.1835938 C 23.967278 6.1804044 24.097134 6.1902381 24.224609 6.2109375 C 24.734511 6.2937355 25.194449 6.55773 25.568359 6.9316406 C 26.316181 7.6794618 26.630637 8.7684863 25.916016 9.9238281 C 25.9066 9.9390711 25.896175 9.9535353 25.886719 9.96875 C 25.052608 8.5974943 23.904276 7.448577 22.535156 6.6113281 C 22.549139 6.6026361 22.562165 6.5926425 22.576172 6.5839844 C 23.009604 6.3161184 23.434104 6.1931617 23.833984 6.1835938 z M 20.712891 7.8925781 C 22.427484 8.6980511 23.802387 10.075863 24.601562 11.792969 C 24.165876 12.342301 23.703285 12.868117 23.212891 13.367188 C 22.303261 14.292586 21.236018 14.995465 20.078125 15.505859 C 19.660431 14.012209 18.487791 12.839569 16.994141 12.421875 C 17.504552 11.263971 18.207489 10.19628 19.132812 9.2871094 A 1.0001 1.0001 0 0 0 19.132812 9.2851562 C 19.633275 8.7929357 20.161429 8.3289837 20.712891 7.8925781 z M 16.353516 14.302734 C 17.276736 14.507073 17.992927 15.223264 18.197266 16.146484 C 17.481392 16.324199 16.746486 16.443803 16.001953 16.498047 C 16.056198 15.75332 16.175786 15.018718 16.353516 14.302734 z"/></svg>